<?xml version="1.0" encoding="UTF-8" standalone="no"?>
<!-- Generator: Adobe Illustrator 13.0.2, SVG Export Plug-In . SVG Version: 6.00 Build 14948)  -->
<svg
   xmlns:dc="http://purl.org/dc/elements/1.1/"
   xmlns:cc="http://web.resource.org/cc/"
   xmlns:rdf="http://www.w3.org/1999/02/22-rdf-syntax-ns#"
   xmlns:svg="http://www.w3.org/2000/svg"
   xmlns="http://www.w3.org/2000/svg"
   xmlns:sodipodi="http://sodipodi.sourceforge.net/DTD/sodipodi-0.dtd"
   xmlns:inkscape="http://www.inkscape.org/namespaces/inkscape"
   version="1.0"
   id="Ebene_1"
   x="0px"
   y="0px"
   width="508.083px"
   height="527.241px"
   viewBox="0 0 508.083 527.241"
   enable-background="new 0 0 508.083 527.241"
   xml:space="preserve"
   sodipodi:version="0.32"
   inkscape:version="0.45.1"
   sodipodi:docname="cai2.svg"
   inkscape:output_extension="org.inkscape.output.svg.inkscape"
   sodipodi:docbase="C:\Users\Fernando\Documents\+backup!\!!!!comiccovers!"><metadata
   id="metadata2222"><rdf:RDF><cc:Work
       rdf:about=""><dc:format>image/svg+xml</dc:format><dc:type
         rdf:resource="http://purl.org/dc/dcmitype/StillImage" /></cc:Work></rdf:RDF></metadata><defs
   id="defs2220" /><sodipodi:namedview
   inkscape:window-height="746"
   inkscape:window-width="1366"
   inkscape:pageshadow="2"
   inkscape:pageopacity="0.0"
   guidetolerance="10.0"
   gridtolerance="10.0"
   objecttolerance="10.0"
   borderopacity="1.0"
   bordercolor="#666666"
   pagecolor="#ffffff"
   id="base"
   inkscape:zoom="0.581668"
   inkscape:cx="375.6511"
   inkscape:cy="353.64614"
   inkscape:window-x="-8"
   inkscape:window-y="-8"
   inkscape:current-layer="Ebene_1" />



<g
   id="g5145"><path
     style="fill:#ec1c24;fill-opacity:1;fill-rule:evenodd"
     id="path2211"
     d="M 327.11442,469.83501 L 339.93994,459.89606 L 352.4468,449.63846 L 364.31076,439.05659 L 375.85325,428.15045 L 386.75658,416.60796 L 397.33845,405.06546 L 407.2774,392.88005 L 416.57718,380.69464 L 425.55551,367.87194 L 433.89186,354.72028 L 441.90957,341.57425 L 449.28435,327.7853 L 456.33768,314.00197 L 462.75184,299.88875 L 468.52309,285.46251 L 473.97288,271.03158 L 478.7835,255.96055 L 483.27267,240.88952 L 487.12173,225.81848 L 490.326,210.10735 L 493.21162,194.3934 L 495.45714,178.68226 L 497.38214,162.64873 L 498.66422,146.29561 L 499.62484,130.26208 L 499.62484,113.58845 L 499.62484,96.913873 L 498.0213,62.28358 L 474.93538,62.28358 C 460.82497,60.358582 448.63956,52.021295 438.05769,42.723383 C 433.88999,39.196719 430.0428,35.348596 426.5152,30.859432 L 414.65312,15.788399 C 404.39271,23.804228 394.45282,32.141515 383.5495,39.196719 C 375.53179,44.326924 367.19638,48.49463 358.21805,51.380254 L 353.72889,52.664211 C 343.14702,54.907855 332.88661,55.549834 321.98328,53.624836 C 317.81558,52.983794 314.28985,52.021295 310.44079,50.739212 C 297.29475,45.609007 286.06997,36.950262 274.848,28.934433 L 261.3805,18.993606 L 245.98801,30.216516 C 235.08656,38.553803 223.86365,46.569632 210.71668,51.380254 L 207.19001,52.342753 C 195.9671,55.228376 185.06378,55.549834 173.51941,53.624836 C 170.63379,52.983794 167.74816,52.342753 164.86254,51.380254 C 152.99859,47.532131 142.41672,41.760884 132.15631,34.386097 C 124.13954,28.293392 116.12184,21.880167 108.42747,15.788399 C 103.61685,22.200687 98.808099,28.613913 93.356435,34.707554 C 82.774567,45.930465 69.626658,56.511396 54.5575,61.00056 C 51.671876,61.641602 49.105836,62.284517 46.220213,62.284517 L 25.057413,62.284517 L 23.453872,96.913873 L 23.453872,113.58845 L 23.453872,130.26208 L 24.414497,146.29561 L 25.69658,162.64873 L 27.621578,178.68226 L 29.86616,194.3934 L 32.751784,210.10735 L 35.958865,225.81848 L 39.805113,240.88952 L 44.296152,255.96055 L 49.104899,271.03158 L 54.556562,285.46251 L 60.327809,299.88875 L 66.740097,314.00197 L 73.795301,327.7853 L 81.170089,341.57425 L 89.185918,354.72028 L 97.524142,367.87194 L 106.50153,380.69464 L 115.80132,392.88005 L 125.74027,405.06546 L 136.32214,416.60796 L 147.22547,428.15045 L 158.76796,439.05659 L 170.63191,449.63846 L 183.1369,459.89606 L 195.96523,469.83501 L 209.43178,479.13761 L 223.54219,488.11594 L 237.64979,496.76999 L 261.37957,509.91603 L 285.42893,496.76999 L 299.53652,488.11594 L 313.64693,479.13761 L 327.11442,469.83501 L 327.11442,469.83501 z "
     clip-rule="evenodd" /><path
     id="path2213"
     d="M 261.3805,498.07832 L 280.61924,487.49645 L 294.72684,479.1601 L 308.19433,470.50042 L 321.34318,461.20344 L 334.16869,451.5822 L 346.03264,441.64325 L 357.89659,431.06138 L 369.12138,420.47951 L 379.70325,409.25472 L 389.96366,397.71223 L 399.58209,386.16974 L 408.88188,373.98433 L 417.53875,361.48027 L 425.87697,348.97622 L 433.57322,335.82456 L 440.948,322.67852 L 447.68081,308.88957 L 454.09497,295.10625 L 459.86622,280.99303 L 464.99549,266.88543 L 469.80611,252.45544 L 473.97382,237.70587 L 477.82288,222.63483 L 481.02996,207.56474 L 483.91558,192.17225 L 486.15923,176.46017 L 487.76277,160.7481 L 489.04485,145.03602 L 490.00829,129.00437 L 490.32693,112.65125 L 490.00829,96.298135 L 488.7262,70.966692 C 482.95496,70.966692 477.1809,71.286275 471.40871,70.645234 C 468.52309,70.004193 465.95893,69.363151 463.07237,68.400652 C 457.61976,66.477528 452.4905,63.911488 447.35842,60.704407 C 437.41946,54.292118 428.11968,46.275352 420.10479,37.297024 C 417.53781,34.411401 415.29416,31.20432 413.04865,28.318696 C 408.23802,32.166819 403.10969,36.013067 398.29907,39.86119 C 388.68064,46.916394 378.73887,52.687641 367.83836,57.176805 C 365.59284,58.139304 363.02774,58.780345 360.78222,59.742844 C 349.8817,62.948051 338.97838,63.910551 327.43588,63.269509 C 321.98328,62.628468 316.85401,61.665969 311.40141,60.062428 C 308.51579,59.099929 305.63017,58.139304 303.06506,56.855347 C 287.99403,50.122538 274.848,39.540669 261.37957,29.9213 C 249.51562,38.898691 237.33021,48.197539 224.1823,54.932223 C 218.73251,57.817846 213.28084,59.742844 207.50866,61.346385 L 202.69804,62.30701 C 192.43763,63.910551 182.49774,63.590967 171.91587,61.985552 C 165.50171,60.703469 159.409,58.780345 152.99671,56.214305 C 144.98088,53.009098 137.6061,48.840455 130.55089,44.03077 C 123.49756,38.898691 116.76382,33.770359 110.03007,28.318696 C 107.46403,31.523903 105.21945,35.052442 102.33383,37.938066 C 90.470812,51.085037 76.360404,62.307947 60.007289,68.400652 C 57.121665,69.363151 54.5575,70.004193 51.670939,70.645234 C 45.899692,71.286275 40.126571,70.966692 34.355324,70.966692 L 33.073241,96.298135 L 32.751784,112.65125 L 33.073241,129.00437 L 34.033866,145.03602 L 35.315949,160.7481 L 36.91949,176.46017 L 39.164072,192.17225 L 42.049695,207.56474 L 45.256776,222.63483 L 49.104899,237.70587 L 53.272605,252.45544 L 58.083227,266.88543 L 63.213433,280.99303 L 68.986554,295.10625 L 75.398842,308.88957 L 82.132588,322.67852 L 89.507376,335.82456 L 97.203621,348.97622 L 105.21945,361.48027 L 114.19778,373.98433 L 123.49756,386.16974 L 133.11693,397.71223 L 143.37734,409.25472 L 153.95921,420.47951 L 165.18212,431.06138 L 177.04607,441.64325 L 188.91003,451.5822 L 201.73648,461.20344 L 214.88251,470.50042 L 228.35,479.1601 L 242.45854,487.49645 L 261.3805,498.07832 L 261.3805,498.07832 z "
     clip-rule="evenodd"
     style="fill:#ffffff;fill-rule:evenodd" /><path
     id="path2215"
     d="M 95.27956,85.394809 C 101.05081,85.394809 105.53997,89.883973 105.53997,95.335636 C 105.53997,101.10688 101.05081,105.59605 95.27956,105.59605 C 89.829771,105.59605 85.340607,101.10688 85.340607,95.335636 C 85.340607,89.883973 89.829771,85.394809 95.27956,85.394809 L 95.27956,85.394809 z M 193.40106,176.78257 C 199.17231,176.78257 203.66148,181.59319 203.66148,187.04298 C 203.66148,192.49464 199.17231,196.98381 193.40106,196.98381 C 187.9494,196.98381 183.46024,192.49464 183.46024,187.04298 C 183.46024,181.59319 187.9494,176.78257 193.40106,176.78257 L 193.40106,176.78257 z M 305.30871,272.65762 C 310.76131,272.65762 315.25047,277.46824 315.25047,282.92084 C 315.25047,288.36875 310.76131,292.85979 305.30871,292.85979 C 299.85892,292.85979 295.0483,288.36782 295.0483,282.92084 C 295.04736,277.46824 299.85798,272.65762 305.30871,272.65762 L 305.30871,272.65762 z M 378.41742,347.04934 C 383.87002,347.04934 388.35918,351.54132 388.35918,357.31257 C 388.35918,362.76048 383.87002,367.25152 378.41742,367.25152 C 372.96763,367.25152 368.157,362.75954 368.157,357.31257 C 368.157,351.54132 372.96763,347.04934 378.41742,347.04934 L 378.41742,347.04934 z M 167.10712,130.92937 C 168.06962,136.37915 174.16233,137.98269 179.61399,137.98269 C 182.49961,137.98269 183.13972,136.0577 182.49961,132.21145 C 179.61399,113.93333 174.80337,95.014178 149.79151,93.732096 C 125.42256,92.128555 112.59611,110.40667 110.03101,133.81499 C 107.14539,165.55966 121.89496,184.47881 145.30328,187.04298 C 171.91681,190.25006 178.33003,166.84174 182.17815,155.61883 C 184.74232,148.24404 168.06962,148.5655 167.42858,157.54383 C 166.78566,169.08632 169.99275,174.85944 158.44838,175.17903 C 145.30328,175.49861 143.6988,157.86341 143.6988,140.22821 C 143.6988,127.08218 142.41672,114.57625 151.71463,112.65219 C 162.29744,110.72813 165.184,120.02604 167.10712,130.92937 L 167.10712,130.92937 z M 268.75529,201.15151 C 256.89134,190.25006 244.06489,180.30923 232.52052,169.08632 C 228.67427,165.24007 226.10823,164.59716 222.90115,167.80424 C 220.97803,170.36841 220.65657,172.93445 221.94053,175.17903 C 224.18417,179.66819 224.82615,183.51631 224.82615,187.68402 L 207.19095,225.20087 C 204.94543,230.01149 200.13575,227.76504 196.60815,228.72754 C 194.68502,230.97306 194.68502,233.2167 196.28856,235.46128 L 206.22939,245.08065 C 207.51147,246.68419 210.3971,247.32617 212.64168,245.08065 C 213.60418,244.11815 213.60418,242.51649 213.28272,241.23253 C 212.00064,234.82024 213.28272,230.6516 216.16834,233.2167 L 244.06583,255.98398 C 247.91395,259.18919 248.55499,264.32127 248.55499,268.80762 C 248.23541,272.65668 247.91395,272.98095 250.47811,275.86376 L 273.8855,298.94968 C 276.45247,301.51947 280.29966,301.1952 282.22372,297.34614 C 283.82726,293.82042 281.5808,290.61334 279.65674,285.16073 C 271.64185,261.11419 268.43477,236.10233 268.43477,212.69494 C 270.68029,212.0539 271.64185,211.0914 271.64185,209.48786 C 272.28289,205.96213 271.31946,203.39609 268.75529,201.15151 L 268.75529,201.15151 z M 233.1625,189.28756 L 218.73251,220.07067 L 242.46041,238.98982 L 239.57479,198.26589 C 239.25427,194.41777 236.04812,190.8911 233.1625,189.28756 L 233.1625,189.28756 z M 356.29305,275.22178 L 329.03661,254.70096 C 326.15099,252.13679 322.94672,252.13679 321.02172,253.73846 C 318.45755,255.98398 319.41818,259.19012 321.34318,261.43471 C 323.26536,263.68023 324.2288,268.48991 323.90734,271.37835 L 323.90734,328.13206 C 323.90734,331.65779 323.26443,335.50685 321.02172,335.8255 C 317.17547,336.14977 315.57193,335.50685 314.92901,338.07102 C 314.28891,339.99883 314.28891,342.23872 317.17453,344.48518 L 348.59868,369.49798 C 351.16285,371.42016 354.36993,371.10152 356.61357,369.49798 C 358.21711,368.53735 356.93503,365.64892 355.97066,364.04538 C 353.08503,360.51965 351.80295,357.95548 351.80295,354.7484 L 351.80295,289.65365 C 351.80295,285.16167 358.21711,284.52438 358.85628,280.99397 C 359.50013,278.11022 358.53951,276.82532 356.29305,275.22178 L 356.29305,275.22178 z "
     clip-rule="evenodd"
     style="fill-rule:evenodd;fill:#ec1c24;fill-opacity:1" /><path
     style="fill:#ec1c24;fill-opacity:1;fill-rule:evenodd"
     id="path2217"
     d="M 261.3805,487.1778 C 297.61246,468.25958 329.35807,445.16897 356.61451,419.20024 L 42.692611,127.72135 C 47.181775,280.67532 121.25298,413.42337 261.3805,487.1778 L 261.3805,487.1778 z M 433.89186,315.62801 C 469.48465,246.36555 484.87621,165.87924 479.74506,80.586061 C 444.15227,82.189602 411.44604,41.787125 411.44604,41.787125 C 392.2073,57.177742 367.8393,72.890753 335.45077,72.890753 C 303.06506,73.210337 284.14778,58.141178 261.3805,41.787125 C 238.93468,58.140241 220.01553,73.210337 187.62888,72.890753 C 181.85763,72.890753 176.40597,72.57117 170.95524,71.606796 L 433.89186,315.62801 L 433.89186,315.62801 z "
     clip-rule="evenodd" /></g>
</svg>